<svg xmlns="http://www.w3.org/2000/svg" xmlns:xlink="http://www.w3.org/1999/xlink" width="1080" zoomAndPan="magnify" viewBox="0 0 810 809.999993" height="1080" preserveAspectRatio="xMidYMid meet" version="1.0"><defs><clipPath id="e72f2e58ea"><path d="M 92.085938 173.71875 L 728.835938 173.71875 L 728.835938 636.46875 L 92.085938 636.46875 Z M 92.085938 173.71875 " clip-rule="nonzero"/></clipPath><clipPath id="0808ada62f"><path d="M 283.5 212.863281 L 526.5 212.863281 L 526.5 496.570312 L 283.5 496.570312 Z M 283.5 212.863281 " clip-rule="nonzero"/></clipPath><clipPath id="a43a44e1a0"><path d="M 382 442 L 457 442 L 457 536 L 382 536 Z M 382 442 " clip-rule="nonzero"/></clipPath><clipPath id="0575edcb4f"><path d="M 441.722656 442.113281 L 457.101562 528.074219 L 397.300781 538.773438 L 381.921875 452.808594 Z M 441.722656 442.113281 " clip-rule="nonzero"/></clipPath><clipPath id="0d5b3c806c"><path d="M 441.722656 442.113281 L 456.558594 525.050781 L 397.660156 535.589844 L 382.824219 452.648438 Z M 441.722656 442.113281 " clip-rule="nonzero"/></clipPath><clipPath id="7982c63fd4"><path d="M 394 452 L 427 452 L 427 537 L 394 537 Z M 394 452 " clip-rule="nonzero"/></clipPath><clipPath id="6c33e1d8b9"><path d="M 424.226562 452.488281 L 426.160156 539.792969 L 395.792969 540.46875 L 393.859375 453.160156 Z M 424.226562 452.488281 " clip-rule="nonzero"/></clipPath><clipPath id="2caab6f735"><path d="M 424.226562 452.488281 L 426.089844 536.722656 L 396.84375 537.371094 L 394.980469 453.136719 Z M 424.226562 452.488281 " clip-rule="nonzero"/></clipPath></defs><g clip-path="url(#e72f2e58ea)"><path fill="#545454" d="M 686.625 216.453125 L 686.625 197.09375 L 677.910156 194.449219 C 632.65625 180.71875 586.902344 173.753906 541.925781 173.753906 C 498.140625 173.753906 453.933594 180.40625 410.464844 193.421875 C 366.988281 180.40625 322.785156 173.753906 279 173.753906 C 234.019531 173.753906 188.269531 180.71875 143.015625 194.449219 L 134.300781 197.09375 L 134.300781 216.453125 L 92.625 216.453125 L 92.625 614.175781 L 356.882812 614.175781 L 356.882812 636.4375 L 464.046875 636.4375 L 464.046875 614.175781 L 728.296875 614.175781 L 728.296875 216.453125 Z M 662.070312 215.40625 L 662.070312 537.257812 C 622.378906 526.78125 582.25 521.476562 542.554688 521.476562 C 502.851562 521.476562 462.613281 526.78125 422.738281 537.273438 L 422.738281 215.371094 C 462.234375 204.058594 502.28125 198.324219 541.921875 198.324219 C 581.609375 198.324219 621.984375 204.070312 662.070312 215.40625 Z M 158.855469 215.40625 C 198.9375 204.070312 239.3125 198.324219 279 198.324219 C 318.640625 198.324219 358.6875 204.058594 398.183594 215.371094 L 398.183594 537.273438 C 358.339844 526.789062 318.089844 521.476562 278.367188 521.476562 C 238.675781 521.476562 198.546875 526.78125 158.855469 537.257812 Z M 703.742188 589.605469 L 439.488281 589.605469 L 439.488281 611.867188 L 381.4375 611.867188 L 381.4375 589.605469 L 117.179688 589.605469 L 117.179688 241.023438 L 134.300781 241.023438 L 134.300781 569.980469 L 150.097656 565.25 C 192.628906 552.507812 235.785156 546.046875 278.367188 546.046875 C 319.300781 546.046875 360.882812 552.015625 401.894531 563.773438 C 403.601562 564.273438 405.304688 564.523438 406.964844 564.523438 C 408.179688 564.523438 409.34375 564.363281 410.472656 564.101562 C 411.597656 564.351562 412.75 564.523438 413.953125 564.523438 C 415.609375 564.523438 417.320312 564.273438 418.964844 563.792969 C 460.039062 552.015625 501.617188 546.046875 542.554688 546.046875 C 585.136719 546.046875 628.292969 552.507812 670.824219 565.25 L 686.621094 569.980469 L 686.621094 241.023438 L 703.742188 241.023438 Z M 703.742188 589.605469 " fill-opacity="1" fill-rule="nonzero"/></g><path fill="#545454" d="M 170.976562 568.300781 L 174.453125 580.082031 C 243.355469 559.71875 313.386719 559.628906 382.609375 579.816406 L 386.042969 568.019531 C 314.527344 547.164062 242.167969 547.253906 170.976562 568.300781 Z M 170.976562 568.300781 " fill-opacity="1" fill-rule="nonzero"/><path fill="#545454" d="M 440.4375 568.300781 L 443.914062 580.082031 C 512.816406 559.71875 582.847656 559.628906 652.0625 579.816406 L 655.5 568.019531 C 583.988281 547.164062 511.628906 547.257812 440.4375 568.300781 Z M 440.4375 568.300781 " fill-opacity="1" fill-rule="nonzero"/><g clip-path="url(#0808ada62f)"><path fill="#ffffff" d="M 283.5 212.863281 L 526.5 212.863281 L 526.5 497.628906 L 283.5 497.628906 Z M 283.5 212.863281 " fill-opacity="1" fill-rule="nonzero"/></g><g clip-path="url(#a43a44e1a0)"><g clip-path="url(#0575edcb4f)"><g clip-path="url(#0d5b3c806c)"><path fill="#ffffff" d="M 441.722656 442.113281 L 456.433594 524.339844 L 396.632812 535.035156 L 381.921875 452.808594 Z M 441.722656 442.113281 " fill-opacity="1" fill-rule="nonzero"/></g></g></g><g clip-path="url(#7982c63fd4)"><g clip-path="url(#6c33e1d8b9)"><g clip-path="url(#2caab6f735)"><path fill="#ffffff" d="M 424.226562 452.488281 L 426.074219 536 L 395.707031 536.671875 L 393.859375 453.160156 Z M 424.226562 452.488281 " fill-opacity="1" fill-rule="nonzero"/></g></g></g></svg>