<?xml version="1.0" encoding="utf-8"?>
<svg width="1080" zoomAndPan="magnify" viewBox="0 0 810 809.999993" height="1080" preserveAspectRatio="xMidYMid meet" version="1.0" xmlns="http://www.w3.org/2000/svg">
  <defs>
    <clipPath id="a5d247e032">
      <path d="M 57 152.074219 L 753 152.074219 L 753 657.574219 L 57 657.574219 Z M 57 152.074219 " clip-rule="nonzero"/>
    </clipPath>
  </defs>
  <g clip-path="url(#a5d247e032)">
    <path fill="#545454" d="M 707.301 198.754 L 707.301 177.605 L 697.766 174.715 C 648.246 159.715 598.184 152.109 548.965 152.109 C 501.055 152.109 452.684 159.375 405.113 173.594 C 357.543 159.375 309.172 152.109 261.262 152.109 C 212.043 152.109 161.98 159.715 112.461 174.715 L 102.926 177.605 L 102.926 198.754 L 57.32 198.754 L 57.32 633.219 L 346.484 633.219 L 346.484 657.535 L 463.746 657.535 L 463.746 633.219 L 752.902 633.219 L 752.902 198.754 L 707.301 198.754 Z M 680.434 197.609 L 680.434 549.195 C 637 537.75 593.09 531.953 549.656 531.953 C 506.211 531.953 462.176 537.75 418.547 549.215 L 418.547 197.57 C 461.762 185.215 505.586 178.953 548.961 178.953 C 592.391 178.953 636.57 185.227 680.434 197.609 Z M 129.793 197.609 C 173.652 185.227 217.832 178.949 261.262 178.949 C 304.637 178.949 375.312 185.211 418.527 197.571 L 418.527 549.215 C 374.929 537.758 304.035 531.953 260.57 531.953 C 217.137 531.953 173.223 537.75 129.793 549.195 L 129.793 197.609 Z M 726.031 606.379 L 436.875 606.379 L 436.875 630.695 L 373.352 630.695 L 373.352 606.379 L 84.188 606.379 L 84.188 225.594 L 102.922 225.594 L 102.922 584.941 L 120.211 579.773 C 166.75 565.852 213.973 558.793 260.566 558.793 C 305.359 558.793 350.859 565.316 395.738 578.16 C 397.605 578.707 399.469 578.98 401.289 578.98 C 402.617 578.98 403.891 578.801 405.125 578.516 C 406.355 578.793 407.617 578.98 408.934 578.98 C 410.746 578.98 412.617 578.703 414.418 578.18 C 459.363 565.316 504.859 558.793 549.656 558.793 C 596.25 558.793 643.473 565.852 690.012 579.773 L 707.301 584.941 L 707.301 225.594 L 726.031 225.594 L 726.031 606.379 Z M 726.031 606.379" fill-opacity="1" fill-rule="nonzero"/>
  </g>
  <path fill="#545454" d="M 143.054688 583.105469 L 146.859375 595.972656 C 222.253906 573.730469 298.886719 573.632812 374.632812 595.683594 L 378.390625 582.800781 C 300.136719 560.015625 220.957031 560.117188 143.054688 583.105469 Z M 143.054688 583.105469 " fill-opacity="1" fill-rule="nonzero"/>
  <path fill="#545454" d="M 437.914062 583.105469 L 441.71875 595.972656 C 517.113281 573.730469 593.742188 573.632812 669.484375 595.683594 L 673.242188 582.800781 C 594.996094 560.015625 515.8125 560.117188 437.914062 583.105469 Z M 437.914062 583.105469 " fill-opacity="1" fill-rule="nonzero"/>
</svg>